<?xml version="1.0" encoding="UTF-8" standalone="no"?>
<!-- Created with Inkscape (http://www.inkscape.org/) -->

<svg
   width="224.33379mm"
   height="224.33379mm"
   viewBox="0 0 224.33379 224.33379"
   version="1.1"
   id="svg1"
   xml:space="preserve"
   inkscape:version="1.3 (0e150ed6c4, 2023-07-21)"
   sodipodi:docname="HourGuard APP ICON.svg"
   xmlns:inkscape="http://www.inkscape.org/namespaces/inkscape"
   xmlns:sodipodi="http://sodipodi.sourceforge.net/DTD/sodipodi-0.dtd"
   xmlns="http://www.w3.org/2000/svg"
   xmlns:svg="http://www.w3.org/2000/svg"><sodipodi:namedview
     id="namedview1"
     pagecolor="#ffffff"
     bordercolor="#000000"
     borderopacity="0.25"
     inkscape:showpageshadow="2"
     inkscape:pageopacity="0.0"
     inkscape:pagecheckerboard="0"
     inkscape:deskcolor="#d1d1d1"
     inkscape:document-units="mm"
     inkscape:zoom="0.7100098"
     inkscape:cx="394.36075"
     inkscape:cy="421.82516"
     inkscape:window-width="1920"
     inkscape:window-height="1009"
     inkscape:window-x="3832"
     inkscape:window-y="1063"
     inkscape:window-maximized="1"
     inkscape:current-layer="svg1"
     showgrid="false" /><defs
     id="defs1"><inkscape:path-effect
       effect="spiro"
       id="path-effect10"
       is_visible="true"
       lpeversion="1" /><inkscape:path-effect
       effect="spiro"
       id="path-effect8"
       is_visible="true"
       lpeversion="1" /><inkscape:path-effect
       effect="spiro"
       id="path-effect6"
       is_visible="true"
       lpeversion="1" /><inkscape:path-effect
       effect="spiro"
       id="path-effect5"
       is_visible="true"
       lpeversion="1" /><inkscape:path-effect
       effect="spiro"
       id="path-effect3"
       is_visible="true"
       lpeversion="1" /></defs><g
     inkscape:label="Layer 1"
     inkscape:groupmode="layer"
     id="layer1"
     transform="translate(7.0803146,-45.835609)"><path
       d="m 149.18701,105.65532 c -1.62448,-0.16258 -3.24373,-0.3647 -4.85759,-0.60513 -1.69128,-0.25196 -3.37767,-0.53975 -5.06067,-0.84956 -3.36599,-0.61962 -6.7191,-1.32687 -10.07277,-2.00815 -1.98863,-0.40397 -3.98247,-0.79929 -5.98155,-1.1653 -1.99907,-0.36601 -4.00322,-0.70255 -6.01255,-0.98857 -2.00933,-0.286024 -4.02366,-0.521726 -6.04304,-0.685747 -2.01939,-0.164021 -4.04377,-0.256315 -6.07302,-0.256315 -2.02924,0 -4.05363,0.09229 -6.073009,0.256315 -2.019385,0.164021 -4.033714,0.399723 -6.043042,0.685747 -2.009329,0.28602 -4.013477,0.62256 -6.012553,0.98857 -1.999076,0.36601 -3.992921,0.76133 -5.981547,1.1653 -3.353674,0.68128 -6.706775,1.38853 -10.07277,2.00815 -1.682998,0.30981 -3.369393,0.5976 -5.060673,0.84956 -1.585347,0.23618 -3.176225,0.43301 -4.771802,0.59428 a 64.278,88.499336 0 0 0 -0.525549,1.94045 64.278,88.499336 0 0 0 -1.949752,12.33826 64.278,88.499336 0 0 0 -0.654224,12.5951 64.278,88.499336 0 0 0 0.654224,12.59458 64.278,88.499336 0 0 0 1.949752,12.33827 64.278,88.499336 0 0 0 3.204972,11.8308 64.278,88.499336 0 0 0 4.395081,11.08253 64.278,88.499336 0 0 0 5.495788,10.10842 64.278,88.499336 0 0 0 6.485392,8.92866 64.278,88.499336 0 0 0 7.341671,7.56698 64.278,88.499336 0 0 0 8.049121,6.05131 64.278,88.499336 0 0 0 8.59276,4.41265 64.278,88.499336 0 0 0 0.93741,0.2806 64.278,88.499336 0 0 0 1.01492,-0.30386 64.278,88.499336 0 0 0 8.59276,-4.41265 64.278,88.499336 0 0 0 8.04912,-6.05131 64.278,88.499336 0 0 0 7.34219,-7.56698 64.278,88.499336 0 0 0 6.48487,-8.92865 64.278,88.499336 0 0 0 5.49579,-10.10843 64.278,88.499336 0 0 0 4.39508,-11.08253 64.278,88.499336 0 0 0 3.20497,-11.8308 64.278,88.499336 0 0 0 1.94976,-12.33826 64.278,88.499336 0 0 0 0.0331,-0.32091 64.278,88.499336 0 0 0 0.032,-0.32091 64.278,88.499336 0 0 0 0.0315,-0.32092 64.278,88.499336 0 0 0 0.0305,-0.32142 64.278,88.499336 0 0 0 0.0295,-0.32143 64.278,88.499336 0 0 0 0.0289,-0.32194 64.278,88.499336 0 0 0 0.0279,-0.32143 64.278,88.499336 0 0 0 0.0274,-0.32195 64.278,88.499336 0 0 0 0.0258,-0.32194 64.278,88.499336 0 0 0 0.0253,-0.32246 64.278,88.499336 0 0 0 0.0248,-0.32195 64.278,88.499336 0 0 0 0.0238,-0.32246 64.278,88.499336 0 0 0 0.0227,-0.32246 64.278,88.499336 0 0 0 0.0217,-0.32297 64.278,88.499336 0 0 0 0.0212,-0.32247 64.278,88.499336 0 0 0 0.0202,-0.32297 64.278,88.499336 0 0 0 0.0196,-0.32298 64.278,88.499336 0 0 0 0.0186,-0.32298 64.278,88.499336 0 0 0 0.0176,-0.32298 64.278,88.499336 0 0 0 0.0165,-0.32349 64.278,88.499336 0 0 0 0.016,-0.32298 64.278,88.499336 0 0 0 0.015,-0.32349 64.278,88.499336 0 0 0 0.0145,-0.3235 64.278,88.499336 0 0 0 0.0129,-0.32349 64.278,88.499336 0 0 0 0.0129,-0.3235 64.278,88.499336 0 0 0 0.0114,-0.32349 64.278,88.499336 0 0 0 0.0109,-0.32401 64.278,88.499336 0 0 0 0.01,-0.3235 64.278,88.499336 0 0 0 0.009,-0.32401 64.278,88.499336 0 0 0 0.008,-0.32401 64.278,88.499336 0 0 0 0.008,-0.32349 64.278,88.499336 0 0 0 0.006,-0.32402 64.278,88.499336 0 0 0 0.006,-0.32401 64.278,88.499336 0 0 0 0.005,-0.32401 64.278,88.499336 0 0 0 0.004,-0.32401 64.278,88.499336 0 0 0 0.003,-0.32401 64.278,88.499336 0 0 0 0.003,-0.32401 64.278,88.499336 0 0 0 0.001,-0.32401 64.278,88.499336 0 0 0 5.2e-4,-0.32401 64.278,88.499336 0 0 0 -0.0775,-4.34289 64.278,88.499336 0 0 0 -0.23203,-4.33204 64.278,88.499336 0 0 0 -0.38602,-4.31084 64.278,88.499336 0 0 0 -0.53951,-4.27985 64.278,88.499336 0 0 0 -0.69143,-4.23798 64.278,88.499336 0 0 0 -0.84129,-4.18683 64.278,88.499336 0 0 0 -0.27595,-1.14928 z"
       style="fill:#dfd8f7;fill-opacity:1;stroke:#512bd4;stroke-width:3;stroke-opacity:1"
       id="path10"
       inkscape:label="sheild" /><g
       id="g35"
       inkscape:label="Hourglass"
       transform="translate(-0.08838023)"><path
         d="m 105.17495,163.18256 c 0,0 -12.506482,3.77183 -15.487432,8.93227 -0.739953,1.28096 0,4.43797 0,4.43797 h 30.974852 c 0,0 0.73995,-3.15701 0,-4.43797 -2.98095,-5.16044 -15.48742,-8.93227 -15.48742,-8.93227 z"
         style="fill:#512bd4;fill-opacity:1;stroke:#512bd4;stroke-width:2.99997;stroke-opacity:1"
         id="path38"
         inkscape:label="sand"
         sodipodi:nodetypes="csccsc" /><rect
         style="fill:#512bd4;stroke:#512bd4;stroke-width:1.62291;stroke-linecap:round"
         id="rect6-7"
         width="41.250099"
         height="1.3770936"
         x="84.549904"
         y="176.93156"
         rx="0.75"
         ry="0.75"
         inkscape:label="round bottom" /><rect
         style="fill:#512bd4;stroke:#512bd4;stroke-width:1.62291;stroke-linecap:round"
         id="rect7"
         width="41.250099"
         height="1.3770936"
         x="84.549904"
         y="118.43152"
         rx="0.75"
         ry="0.75"
         inkscape:label="round top" /><path
         style="fill:none;stroke:#512bd4;stroke-width:2.99997;stroke-dasharray:none;stroke-opacity:1"
         d="m 105.17495,148.36996 c 0,0 -12.506628,3.77178 -15.487619,8.93226 -3.387646,5.86445 0,20.31776 0,20.31776 h 30.975239 c 0,0 3.38765,-14.45331 0,-20.31776 -2.98099,-5.16048 -15.48762,-8.93226 -15.48762,-8.93226 z"
         id="path35"
         inkscape:label="bottom glass"
         sodipodi:nodetypes="csccsc" /><path
         style="fill:none;stroke:#512bd4;stroke-width:2.99997;stroke-dasharray:none;stroke-opacity:1"
         d="m 89.687331,119.11994 c 0,0 -3.387488,14.4529 0,20.31725 2.980969,5.16059 15.487619,8.93277 15.487619,8.93277 0,0 12.50665,-3.77218 15.48762,-8.93277 3.38749,-5.86435 0,-20.31725 0,-20.31725 z"
         id="path20"
         inkscape:label="top glass"
         sodipodi:nodetypes="cscscc" /></g></g></svg>
